<svg width="37" height="37" viewBox="0 0 37 37" fill="none" xmlns="http://www.w3.org/2000/svg">
<path fill-rule="evenodd" clip-rule="evenodd" d="M18.5 35.9918C28.165 35.9918 36 28.1567 36 18.4918C36 8.82678 28.165 0.99176 18.5 0.99176C8.83502 0.99176 1 8.82678 1 18.4918C1 28.1567 8.83502 35.9918 18.5 35.9918Z" stroke="#606060" stroke-opacity="0.3" stroke-width="1.5"/>
<path d="M20.0933 14.0124H21.7017C21.8497 14.0124 21.9698 13.8992 21.9698 13.7598V12.2442C21.9698 12.1048 21.8497 11.9916 21.7017 11.9916H20.0933C18.4678 11.9916 17.1446 13.2379 17.1446 14.7702V16.5384H15.2682C15.1202 16.5384 15.0001 16.6515 15.0001 16.791V18.3066C15.0001 18.446 15.1202 18.5592 15.2682 18.5592H17.1446V23.8637C17.1446 24.0031 17.2647 24.1163 17.4127 24.1163H19.0211C19.169 24.1163 19.2891 24.0031 19.2891 23.8637V18.5592H21.1656C21.2808 18.5592 21.3832 18.4894 21.4202 18.3864L21.9564 16.8708C21.9837 16.794 21.9698 16.7091 21.9194 16.6429C21.8684 16.5773 21.788 16.5384 21.7017 16.5384H19.2891V14.7702C19.2891 14.3524 19.6499 14.0124 20.0933 14.0124Z" fill="#292929"/>
</svg>
