<svg width="37" height="37" viewBox="0 0 37 37" fill="none" xmlns="http://www.w3.org/2000/svg">
<path fill-rule="evenodd" clip-rule="evenodd" d="M18.5 35.9918C28.165 35.9918 36 28.1567 36 18.4918C36 8.82678 28.165 0.99176 18.5 0.99176C8.83502 0.99176 1 8.82678 1 18.4918C1 28.1567 8.83502 35.9918 18.5 35.9918Z" stroke="#606060" stroke-opacity="0.3" stroke-width="1.5"/>
<path d="M14.4837 14.9589C15.303 14.9589 15.9672 14.2947 15.9672 13.4753C15.9672 12.656 15.303 11.9918 14.4837 11.9918C13.6643 11.9918 13.0001 12.656 13.0001 13.4753C13.0001 14.2947 13.6643 14.9589 14.4837 14.9589Z" fill="#292929"/>
<path d="M15.7198 15.9499H13.2473C13.1108 15.9499 13 16.0606 13 16.1971V23.6149C13 23.7514 13.1108 23.8621 13.2473 23.8621H15.7198C15.8563 23.8621 15.9671 23.7514 15.9671 23.6149V16.1971C15.9671 16.0606 15.8563 15.9499 15.7198 15.9499Z" fill="#292929"/>
<path d="M23.0882 15.5385C22.0314 15.1765 20.7095 15.4945 19.9168 16.0647C19.8896 15.9583 19.7927 15.8792 19.6775 15.8792H17.2049C17.0684 15.8792 16.9576 15.99 16.9576 16.1265V23.5442C16.9576 23.6807 17.0684 23.7915 17.2049 23.7915H19.6775C19.814 23.7915 19.9247 23.6807 19.9247 23.5442V18.2133C20.3243 17.8692 20.8391 17.7594 21.2604 17.9384C21.6689 18.111 21.9028 18.5323 21.9028 19.0936V23.5442C21.9028 23.6807 22.0136 23.7915 22.1501 23.7915H24.6227C24.7591 23.7915 24.8699 23.6807 24.8699 23.5442V18.5956C24.8417 16.5636 23.8858 15.8115 23.0882 15.5385Z" fill="#292929"/>
</svg>
