<svg width="60" height="60" viewBox="0 0 60 60" fill="none" xmlns="http://www.w3.org/2000/svg">
<path d="M41.1708 28.3893H38.8376C38.8376 25.8437 36.7477 23.7791 34.1706 23.7791C33.7653 23.7791 33.3789 23.8458 33.004 23.9423V22.6278C33.004 19.4458 30.3926 16.865 27.1704 16.865C23.9485 16.865 21.3371 19.4458 21.3371 22.6278V24.9632C20.6136 25.9229 20.1702 27.1008 20.1702 28.3893H17.8366C17.8366 34.3651 22.4421 39.2774 28.3373 39.8548V39.9191C28.3349 41.1886 27.2915 42.2167 26.0062 42.2167V42.2181H22.5037V44.5227H36.5041V42.2181H33.004C31.7163 42.2181 30.6754 41.1882 30.6705 39.9177C30.6705 39.917 30.6729 39.9142 30.6729 39.9122H30.6705V39.8548C36.5667 39.276 41.1708 34.3651 41.1708 28.3893ZM34.1706 26.0844C35.4593 26.0844 36.5041 27.1163 36.5041 28.3893H31.8374C31.8374 27.1163 32.8818 26.0844 34.1706 26.0844ZM23.6703 22.6278C23.6703 20.7188 25.2373 19.1699 27.1704 19.1699C29.1038 19.1699 30.6705 20.7184 30.6705 22.6278V24.9635C29.6064 23.553 27.9204 22.6264 26.0038 22.6264C25.1722 22.6264 24.386 22.8038 23.6703 23.1125V22.6278ZM26.0038 24.9314C27.9362 24.9314 29.5039 26.4799 29.5039 28.3893H22.5037C22.5037 26.4802 24.0703 24.9314 26.0038 24.9314ZM29.5039 37.6083C25.1631 37.6083 21.5048 34.6655 20.4656 30.6939H38.5422C37.503 34.6655 33.8447 37.6083 29.5039 37.6083Z" fill="#FF9AC4"/>
<path d="M38.8149 18.0394C35.9983 17.7777 33.928 19.8223 34.1937 22.6043C37.0088 22.866 39.0788 20.8214 38.8149 18.0394Z" fill="#FF9AC4"/>
<path d="M0.00387303 29.5763C-0.0445489 30.1302 0.366744 30.6132 0.91958 30.6604C1.48031 30.7082 1.96935 30.302 2.01778 29.7481C2.06552 29.202 1.65422 28.719 1.09349 28.6712C0.540654 28.624 0.051613 29.0303 0.00387303 29.5763Z" fill="#292929"/>
<path d="M6.20393 21.3186L1.43808 18.5114L2.68047 16.4535C2.98903 15.9424 3.35956 15.5529 3.79205 15.285C4.22454 15.0171 4.68277 14.8798 5.16673 14.8731C5.65068 14.8665 6.13322 15.0048 6.61435 15.2882C7.09093 15.569 7.44355 15.9225 7.6722 16.3489C7.89631 16.7727 7.99184 17.2361 7.95877 17.7393C7.9257 18.2425 7.75488 18.7497 7.44632 19.2608L6.20393 21.3186ZM5.98282 20.0032L6.67304 18.86C6.88687 18.5058 7.00284 18.1608 7.02096 17.8251C7.04178 17.4848 6.9716 17.1731 6.81041 16.8897C6.65192 16.6019 6.40928 16.3617 6.08248 16.1692C5.75114 15.974 5.42188 15.8773 5.0947 15.8791C4.76569 15.8737 4.45461 15.9609 4.16145 16.1407C3.871 16.3161 3.61886 16.5808 3.40503 16.935L2.71481 18.0783L5.98282 20.0032Z" fill="#FF9AC4"/>
<path d="M11.844 13.8484C11.5308 14.1442 11.1881 14.3416 10.8158 14.4404C10.4399 14.5355 10.068 14.5328 9.70026 14.4324C9.33249 14.332 9.00434 14.1328 8.7158 13.8347C8.4236 13.5329 8.23677 13.2002 8.15529 12.8366C8.07016 12.4692 8.08589 12.1041 8.2025 11.7411C8.31911 11.3782 8.53401 11.0488 8.8472 10.753C9.16421 10.4535 9.50885 10.2544 9.88113 10.1556C10.2572 10.0531 10.6254 10.052 10.9857 10.1523C11.3498 10.2489 11.6798 10.45 11.9757 10.7556C12.2642 11.0536 12.451 11.3863 12.5362 11.7537C12.6251 12.1175 12.6112 12.4845 12.4944 12.8549C12.3778 13.2178 12.161 13.549 11.844 13.8484ZM11.2578 13.2429C11.4335 13.077 11.5536 12.8913 11.618 12.686C11.6825 12.4807 11.6835 12.2702 11.6211 12.0547C11.5625 11.8356 11.4401 11.6298 11.2538 11.4374C11.0639 11.2413 10.8612 11.1113 10.6459 11.0474C10.4307 10.9762 10.2178 10.9678 10.0073 11.0223C9.79674 11.0767 9.60553 11.1851 9.43366 11.3474C9.25797 11.5134 9.1379 11.699 9.07345 11.9043C9.01282 12.1061 9.01179 12.3165 9.07038 12.5356C9.12531 12.7509 9.24774 12.9567 9.43766 13.1529C9.62394 13.3453 9.82658 13.4753 10.0456 13.5429C10.2646 13.6105 10.4774 13.6189 10.6842 13.5681C10.8947 13.5136 11.0859 13.4052 11.2578 13.2429Z" fill="#FF9AC4"/>
<path d="M16.6899 10.2367C16.3774 10.4119 16.069 10.5098 15.7648 10.5303C15.458 10.5463 15.1701 10.4736 14.9012 10.3123C14.6296 10.1464 14.3895 9.88193 14.1808 9.51877L12.9872 7.44195L13.8489 6.95877L14.976 8.91983C15.1638 9.24667 15.3782 9.45058 15.6192 9.53154C15.8622 9.60538 16.1216 9.56499 16.3973 9.41037C16.5995 9.29699 16.7507 9.15821 16.8508 8.99403C16.9555 8.82728 17.0022 8.639 16.991 8.42919C16.9844 8.21681 16.912 7.99032 16.7737 7.74973L15.7171 5.91123L16.5788 5.42805L18.6686 9.06419L17.8482 9.52418L17.2847 8.54364L17.6017 8.76208C17.6132 9.06771 17.5361 9.35108 17.3701 9.61219C17.2016 9.86876 16.9748 10.0769 16.6899 10.2367Z" fill="#FF9AC4"/>
<path d="M23.1365 7.61309C22.7897 7.70602 22.4604 7.71314 22.1486 7.63445C21.8367 7.55575 21.5603 7.38645 21.3191 7.12654C21.0817 6.86024 20.8987 6.49282 20.77 6.02431C20.6399 5.55075 20.6124 5.14165 20.6875 4.79701C20.7677 4.45101 20.9229 4.16874 21.1531 3.9502C21.387 3.72526 21.6697 3.56837 22.0012 3.47954C22.4042 3.37157 22.7821 3.36222 23.1352 3.4515C23.4934 3.53942 23.8039 3.71312 24.0668 3.97259C24.3349 4.23069 24.5263 4.56882 24.6411 4.98696C24.756 5.4051 24.7638 5.79243 24.6646 6.14894C24.5705 6.50408 24.3921 6.8115 24.1294 7.07119C23.8704 7.32448 23.5395 7.50511 23.1365 7.61309ZM20.8575 8.16702L19.3174 2.5599L20.2737 2.30364L20.9628 4.81248L21.181 5.90604L21.5064 6.9709L21.7679 7.92306L20.8575 8.16702ZM22.8074 6.83321C23.0369 6.77171 23.227 6.66666 23.3779 6.51807C23.5338 6.36811 23.6391 6.18306 23.6936 5.96292C23.7481 5.74278 23.7401 5.50425 23.6695 5.24732C23.5976 4.98535 23.4824 4.77552 23.3241 4.61782C23.1644 4.45508 22.979 4.34794 22.7677 4.29638C22.5615 4.24346 22.3436 4.24775 22.1141 4.30926C21.8846 4.37076 21.6919 4.47649 21.5359 4.62645C21.38 4.77641 21.2748 4.96146 21.2202 5.1816C21.1643 5.3967 21.1724 5.63523 21.2443 5.8972C21.3149 6.15413 21.43 6.36396 21.5897 6.5267C21.7494 6.68944 21.9349 6.79658 22.1461 6.84814C22.3574 6.89969 22.5778 6.89472 22.8074 6.83321Z" fill="#FF9AC4"/>
<path d="M27.2138 6.84725L26.806 1.05144L27.7945 0.983582L28.2023 6.7794L27.2138 6.84725Z" fill="#FF9AC4"/>
<path d="M32.7275 6.99193C32.2603 6.93777 31.8617 6.79959 31.5316 6.57737C31.2074 6.35057 30.9673 6.0652 30.8113 5.72126C30.6605 5.37792 30.6095 5.00147 30.6581 4.59191C30.7074 4.17716 30.8427 3.82231 31.064 3.52736C31.2911 3.22784 31.5782 3.00621 31.9252 2.86248C32.2774 2.71937 32.6635 2.67215 33.0833 2.72082C33.4927 2.76829 33.8471 2.89871 34.1463 3.1121C34.4455 3.32548 34.6679 3.60354 34.8134 3.94626C34.9589 4.28899 35.0058 4.6781 34.954 5.11358C34.9491 5.15506 34.9409 5.20141 34.9295 5.25265C34.9234 5.30449 34.9149 5.35344 34.9041 5.39949L31.4006 4.99333L31.4773 4.34788L34.4612 4.6938L34.0514 4.85126C34.0849 4.61339 34.06 4.39764 33.9766 4.20402C33.8932 4.0104 33.7658 3.8511 33.5944 3.72611C33.4283 3.60174 33.2271 3.52586 32.9909 3.49848C32.7495 3.47049 32.5308 3.49769 32.3348 3.58008C32.144 3.66308 31.985 3.79181 31.8579 3.96628C31.7366 4.13617 31.6611 4.34554 31.6316 4.59439L31.6131 4.74992C31.5835 4.99877 31.6151 5.22579 31.7078 5.431C31.8004 5.63621 31.9456 5.80283 32.1432 5.93085C32.3408 6.05888 32.5761 6.13871 32.8491 6.17036C33.0852 6.19774 33.3021 6.18609 33.4997 6.13541C33.6973 6.08474 33.8788 5.99015 34.0442 5.85166L34.5006 6.51161C34.2857 6.70744 34.0269 6.84825 33.7241 6.93402C33.4271 7.01522 33.0949 7.03452 32.7275 6.99193Z" fill="#FF9AC4"/>
<path d="M39.9029 8.74495L42.6241 3.96833L44.7381 5.14331C45.2631 5.43514 45.6667 5.7912 45.9487 6.21152C46.2308 6.63183 46.3813 7.08084 46.4002 7.55855C46.4191 8.03625 46.2912 8.51621 46.0165 8.99842C45.7444 9.47609 45.3954 9.83317 44.9696 10.0697C44.5464 10.3016 44.0797 10.4076 43.5696 10.3876C43.0595 10.3677 42.5419 10.2118 42.0169 9.91993L39.9029 8.74495ZM41.2286 8.49351L42.4031 9.14628C42.7669 9.34851 43.119 9.45434 43.4592 9.46378C43.8041 9.47578 44.1179 9.39863 44.4006 9.23233C44.6879 9.06859 44.9249 8.82295 45.1115 8.49541C45.3007 8.16332 45.3903 7.83577 45.3803 7.51274C45.3774 7.18773 45.2813 6.88276 45.0919 6.59781C44.9072 6.31542 44.6329 6.07311 44.269 5.87088L43.0946 5.21812L41.2286 8.49351Z" fill="#FF9AC4"/>
<path d="M46.2854 12.8413L49.1126 9.72938L49.8501 10.3831L47.0229 13.495L46.2854 12.8413ZM49.9502 9.54601C49.8125 9.42399 49.7373 9.28016 49.7245 9.1145C49.7156 8.95233 49.7659 8.81103 49.8753 8.69059C49.9882 8.56627 50.125 8.50167 50.2857 8.49678C50.4538 8.49149 50.6067 8.54986 50.7444 8.67188C50.882 8.7939 50.9571 8.93406 50.9695 9.09234C50.9893 9.25023 50.9446 9.38939 50.8352 9.50982C50.7187 9.63803 50.5766 9.70846 50.4089 9.72112C50.2447 9.72989 50.0918 9.67152 49.9502 9.54601Z" fill="#FF9AC4"/>
<path d="M50.227 17.1264C50.0208 16.855 49.8955 16.5596 49.8509 16.2402C49.8096 15.9249 49.8649 15.6065 50.017 15.2849C50.1765 14.9643 50.4527 14.6583 50.8458 14.3669C51.2431 14.0723 51.6161 13.8936 51.9649 13.8309C52.3168 13.7722 52.6381 13.8081 52.9289 13.9385C53.2238 14.0658 53.4791 14.2713 53.6949 14.5552C53.9455 14.885 54.0941 15.2284 54.1408 15.5854C54.1906 15.9466 54.1421 16.2959 53.9954 16.6331C53.8518 16.9746 53.6046 17.2754 53.2538 17.5355C52.903 17.7955 52.5394 17.9476 52.1632 17.9916C51.7943 18.0366 51.4413 17.9851 51.1041 17.837C50.77 17.693 50.4777 17.4562 50.227 17.1264ZM47.6329 16.1518L52.2482 12.7299L52.8145 13.475L52.0157 14.0673L51.0964 14.7097L50.2438 15.4398L48.2278 16.9346L47.6329 16.1518ZM50.8388 16.5358C50.9815 16.7236 51.1507 16.8593 51.3463 16.9427C51.545 17.0303 51.758 17.0584 51.9852 17.027C52.2125 16.9956 52.4338 16.9 52.6494 16.7402C52.8692 16.5772 53.0239 16.3939 53.1137 16.1903C53.2077 15.9836 53.2398 15.7737 53.2101 15.5608C53.1836 15.352 53.099 15.1537 52.9562 14.9658C52.8135 14.7779 52.6427 14.6402 52.444 14.5526C52.2452 14.465 52.0322 14.4369 51.805 14.4683C51.582 14.4965 51.3606 14.5922 51.1409 14.7551C50.9253 14.9149 50.7705 15.0982 50.6765 15.305C50.5826 15.5117 50.5504 15.7216 50.5801 15.9345C50.6098 16.1475 50.696 16.3479 50.8388 16.5358Z" fill="#FF9AC4"/>
<path d="M58.5799 25.8259C58.4595 25.2829 57.9215 24.9424 57.3794 25.0597C56.8296 25.1786 56.4849 25.71 56.6053 26.2531C56.724 26.7885 57.2621 27.129 57.8119 27.0101C58.3539 26.8928 58.6986 26.3613 58.5799 25.8259Z" fill="#292929"/>
<path d="M1.4717 36.8908L6.96683 36.1294L7.0654 36.7005L1.57027 37.462L1.4717 36.8908Z" fill="#292929"/>
<path d="M2.78958 42.0559C2.64146 41.676 2.59403 41.3077 2.64729 40.9513C2.70749 40.598 2.85524 40.2881 3.09056 40.0215C3.3309 39.7533 3.64723 39.5567 4.03955 39.4318C4.43689 39.3052 4.81969 39.2791 5.18794 39.3535C5.55619 39.4279 5.88374 39.5864 6.17059 39.8291C6.45934 40.0767 6.67778 40.3904 6.82591 40.7704C6.95315 41.0967 7.00266 41.4123 6.97443 41.717C6.94621 42.0217 6.83076 42.2912 6.62809 42.5255L6.20551 42.2247C6.35542 42.0291 6.44018 41.8187 6.45978 41.5934C6.47938 41.3681 6.44456 41.141 6.3553 40.912C6.24895 40.6393 6.08766 40.4141 5.87143 40.2365C5.66023 40.0574 5.41426 39.9413 5.13352 39.8883C4.85278 39.8354 4.55649 39.8586 4.24465 39.9579C3.93281 40.0572 3.68589 40.207 3.5039 40.4074C3.32191 40.6077 3.20826 40.8383 3.16295 41.0992C3.12266 41.3584 3.15569 41.6244 3.26204 41.8972C3.3513 42.1262 3.48169 42.3229 3.65322 42.4873C3.82474 42.6517 4.03422 42.7684 4.28166 42.8375L4.16103 43.3112C3.84564 43.2419 3.56877 43.0974 3.33042 42.8776C3.0971 42.6562 2.91682 42.3823 2.78958 42.0559Z" fill="#292929"/>
<path d="M5.59992 47.4631C5.35128 47.1126 5.21031 46.7596 5.17702 46.4043C5.14827 46.0463 5.21733 45.7128 5.3842 45.4039C5.55562 45.0923 5.81878 44.8329 6.17368 44.6258C6.52857 44.4187 6.89255 44.306 7.26561 44.2878C7.6417 44.2739 7.99503 44.3457 8.32559 44.5034C8.66374 44.6627 8.94349 44.8984 9.16484 45.2105C9.38922 45.5269 9.51048 45.8521 9.52862 46.186C9.55434 46.5216 9.47845 46.8409 9.30097 47.144C9.12803 47.4444 8.86184 47.6994 8.5024 47.9092C8.47965 47.9225 8.45311 47.9349 8.42277 47.9466C8.40002 47.9599 8.375 47.9745 8.3477 47.9904L6.26914 45.0597L6.63086 44.8486L8.53659 47.5356L8.26591 47.4397C8.52526 47.2884 8.71713 47.1008 8.84152 46.8771C8.9735 46.655 9.03268 46.421 9.01908 46.1751C9.00548 45.9291 8.91529 45.6886 8.74852 45.4535C8.58478 45.2226 8.38085 45.0484 8.13671 44.931C7.89258 44.8135 7.63175 44.7632 7.35423 44.7801C7.07671 44.797 6.806 44.8824 6.54211 45.0364L6.46703 45.0803C6.19404 45.2396 5.99231 45.4359 5.86185 45.6692C5.73897 45.9041 5.68964 46.1565 5.71385 46.4265C5.74565 46.6981 5.85403 46.9643 6.03899 47.2251C6.18453 47.4303 6.35814 47.5979 6.55981 47.7281C6.76451 47.8625 6.99197 47.9474 7.24218 47.9827L7.11017 48.4224C6.81294 48.3843 6.53393 48.2812 6.27312 48.113C6.01535 47.9491 5.79095 47.7325 5.59992 47.4631Z" fill="#292929"/>
<path d="M13.3626 55.0822C13.0125 54.8575 12.7308 54.596 12.5174 54.2976C12.3072 53.9951 12.1706 53.6746 12.1076 53.3362C12.0446 52.9978 12.0554 52.6541 12.1401 52.305C12.2291 51.9587 12.3973 51.6259 12.6445 51.3067C12.8918 50.9874 13.1796 50.7315 13.5079 50.5388C13.8407 50.3489 14.1927 50.2242 14.564 50.1646C14.9396 50.1078 15.3177 50.1208 15.698 50.2036C16.0816 50.2822 16.4484 50.4339 16.7985 50.6586C17.1353 50.8748 17.4104 51.132 17.6238 51.4304C17.8404 51.7246 17.9687 52.0429 18.0088 52.3852L17.47 52.4769C17.4208 52.1722 17.3114 51.9065 17.142 51.6798C16.9758 51.449 16.7598 51.2482 16.4939 51.0776C16.2148 50.8984 15.9202 50.7776 15.6103 50.7152C15.3036 50.6487 14.9974 50.6414 14.6917 50.6935C14.3892 50.7414 14.1019 50.8425 13.8298 50.9968C13.5654 51.1498 13.332 51.3569 13.1297 51.6181C12.9274 51.8793 12.79 52.1511 12.7173 52.4334C12.6522 52.7144 12.6441 52.9947 12.6929 53.2743C12.7449 53.5498 12.8553 53.8099 13.0239 54.0548C13.1958 54.2954 13.4213 54.5054 13.7004 54.6846C13.9663 54.8552 14.2465 54.973 14.5412 55.038C14.8358 55.103 15.1491 55.1055 15.4809 55.0454L15.5669 55.5382C15.1993 55.6188 14.8253 55.6177 14.445 55.5349C14.0646 55.4521 13.7038 55.3012 13.3626 55.0822Z" fill="#292929"/>
<path d="M17.7823 57.4617L19.4954 53.7154L19.9983 53.9071L19.5317 54.9275L19.5615 54.7294C19.8005 54.4853 20.0819 54.3383 20.4057 54.2886C20.7317 54.2341 21.0845 54.2792 21.4641 54.4239L21.239 54.9163C21.2193 54.9088 21.1995 54.9012 21.1798 54.8937C21.1623 54.8814 21.1436 54.8715 21.1239 54.864C20.7147 54.708 20.3388 54.7072 19.9961 54.8615C19.6556 55.011 19.3842 55.307 19.1819 55.7494L18.3074 57.6618L17.7823 57.4617Z" fill="#292929"/>
<path d="M24.2272 59.4613C23.8007 59.3855 23.4445 59.232 23.1586 59.0009C22.8738 58.7647 22.6726 58.4771 22.5551 58.138C22.4387 57.7939 22.4225 57.4225 22.5064 57.0239C22.5903 56.6253 22.7503 56.2879 22.9865 56.0118C23.2279 55.7366 23.5177 55.539 23.8559 55.4188C24.2004 55.2945 24.5625 55.2662 24.9422 55.3337C25.3271 55.4021 25.6495 55.5496 25.9093 55.7761C26.1755 55.9984 26.3616 56.2807 26.4676 56.6229C26.5747 56.9601 26.5858 57.3306 26.5008 57.7343C26.4954 57.7599 26.4869 57.7875 26.4752 57.8172C26.4699 57.8428 26.4639 57.8709 26.4575 57.9016L22.8922 57.2675L22.9777 56.8612L26.2465 57.4425L25.9942 57.5647C26.0555 57.2734 26.0448 57.0037 25.9621 56.7557C25.8857 56.5036 25.7517 56.2942 25.5602 56.1275C25.3686 55.9609 25.1298 55.8522 24.8438 55.8013C24.5629 55.7514 24.2972 55.7704 24.0467 55.8584C23.7961 55.9464 23.5842 56.0942 23.411 56.302C23.2378 56.5098 23.12 56.7619 23.0576 57.0583L23.0398 57.1426C22.9753 57.4493 22.9859 57.7322 23.0716 57.9913C23.1637 58.2463 23.3179 58.4619 23.5344 58.6383C23.7572 58.8104 24.0272 58.9247 24.3444 58.9812C24.5941 59.0256 24.8347 59.0233 25.0662 58.9743C25.3029 58.9263 25.5181 58.8267 25.7118 58.6756L25.9497 59.0837C25.7224 59.266 25.4592 59.3888 25.1599 59.4523C24.8657 59.5166 24.5548 59.5196 24.2272 59.4613Z" fill="#292929"/>
<path d="M31.9986 59.9075L31.9547 59.0003L31.9237 58.8525L31.8502 57.3353C31.8333 56.9859 31.7199 56.721 31.5101 56.5405C31.3056 56.3598 31.008 56.2765 30.6172 56.2906C30.3478 56.3002 30.0939 56.3538 29.8552 56.4511C29.6166 56.5485 29.4163 56.6732 29.2544 56.8253L28.9808 56.4199C29.1834 56.235 29.4304 56.0903 29.7216 55.9859C30.0125 55.8762 30.3217 55.8154 30.6491 55.8037C31.1878 55.7843 31.6088 55.9024 31.9122 56.1578C32.2206 56.4079 32.3878 56.8015 32.4138 57.3385L32.5373 59.8881L31.9986 59.9075ZM30.5667 59.9981C30.2551 60.0093 29.9807 59.9696 29.7435 59.8789C29.5114 59.7827 29.3303 59.6482 29.2002 59.4753C29.0699 59.2972 28.9991 59.0908 28.9877 58.8562C28.9774 58.6424 29.0182 58.4477 29.1102 58.272C29.2072 58.0909 29.3694 57.9441 29.5967 57.8315C29.8291 57.7134 30.1433 57.6473 30.5394 57.6331L31.9732 57.5815L31.9933 57.9961L30.5753 58.047C30.1739 58.0614 29.8974 58.1419 29.7458 58.2883C29.5995 58.4346 29.5314 58.6121 29.5415 58.8206C29.5529 59.0552 29.6544 59.2396 29.846 59.3738C30.0377 59.5079 30.2999 59.569 30.6326 59.557C30.9495 59.5456 31.2181 59.4655 31.4383 59.3165C31.6636 59.1622 31.8225 58.9476 31.915 58.6726L32.0603 59.0513C31.9678 59.3262 31.7935 59.5493 31.5372 59.7204C31.2863 59.8913 30.9628 59.9839 30.5667 59.9981Z" fill="#292929"/>
<path d="M39.5824 54.049C39.9041 53.9458 40.2069 53.9171 40.491 53.9629C40.7781 54.0023 41.0348 54.1226 41.261 54.324C41.4923 54.5238 41.6806 54.8086 41.8259 55.1785L42.7005 57.4049L42.1652 57.5767L41.3107 55.4013C41.152 54.9974 40.932 54.7255 40.6507 54.5857C40.3725 54.4393 40.0524 54.4242 39.6906 54.5404C39.4192 54.6275 39.2049 54.7593 39.0478 54.9357C38.8939 55.1057 38.8027 55.313 38.7743 55.5578C38.7491 55.7961 38.7938 56.0612 38.9085 56.3532L39.6999 58.3679L39.1646 58.5397L38.3102 56.3644C38.1515 55.9605 37.9315 55.6886 37.6502 55.5487C37.3669 55.404 37.0444 55.3897 36.6825 55.5058C36.4161 55.5913 36.2044 55.7223 36.0473 55.8987C35.8883 56.0703 35.7946 56.2785 35.7663 56.5232C35.741 56.7615 35.7857 57.0266 35.9004 57.3186L36.6918 59.3333L36.1566 59.5051L34.6512 55.6728L35.1638 55.5083L35.571 56.5448L35.4164 56.3889C35.428 56.0728 35.5365 55.7942 35.7417 55.553C35.95 55.3052 36.2376 55.1225 36.6045 55.0048C36.9915 54.8806 37.358 54.8698 37.704 54.9725C38.048 55.0703 38.3338 55.2937 38.5614 55.6426L38.3188 55.63C38.3121 55.2815 38.4172 54.9655 38.6341 54.6822C38.8542 54.3923 39.1703 54.1813 39.5824 54.049Z" fill="#292929"/>
<path d="M50.1864 52.2152C49.8811 52.4888 49.5393 52.7074 49.1609 52.8709C48.7826 53.0274 48.4399 53.1028 48.1327 53.0972L47.9725 52.6401C48.2565 52.6385 48.568 52.5735 48.9073 52.445C49.2465 52.3095 49.5512 52.1207 49.8212 51.8787C50.0795 51.6471 50.258 51.431 50.3566 51.2302C50.4553 51.0223 50.4877 50.8352 50.4539 50.6688C50.424 50.499 50.3433 50.3535 50.2119 50.2324C50.0535 50.0864 49.879 50.011 49.6885 50.0062C49.5019 49.9978 49.3072 50.0354 49.1044 50.1188C48.8977 50.1987 48.6831 50.2997 48.4606 50.4219C48.2381 50.5441 48.0136 50.6645 47.7872 50.7832C47.557 50.8982 47.325 50.9868 47.0912 51.0488C46.8613 51.1073 46.6338 51.1181 46.4085 51.0812C46.1832 51.0373 45.9624 50.9156 45.746 50.7162C45.5451 50.531 45.4144 50.3145 45.3539 50.0667C45.2934 49.8118 45.3245 49.538 45.4471 49.2455C45.5659 48.9494 45.7994 48.6453 46.1477 48.333C46.3786 48.1261 46.6404 47.9511 46.9331 47.8082C47.2219 47.6617 47.5045 47.5665 47.7809 47.5224L47.9761 47.9691C47.6841 48.0201 47.4112 48.1102 47.1575 48.2392C46.9078 48.3648 46.6909 48.51 46.507 48.6748C46.2604 48.8958 46.0898 49.1085 45.995 49.3129C45.9002 49.5172 45.8697 49.7061 45.9035 49.8796C45.9374 50.0459 46.0238 50.1932 46.1629 50.3214C46.3214 50.4674 46.4939 50.5446 46.6805 50.5529C46.871 50.5578 47.0677 50.5184 47.2705 50.435C47.4772 50.348 47.6918 50.2435 47.9144 50.1213C48.1369 49.9991 48.3613 49.8822 48.5877 49.7707C48.8179 49.6556 49.048 49.5688 49.2778 49.5103C49.5077 49.4447 49.7334 49.4321 49.9548 49.4725C50.1801 49.5094 50.399 49.6257 50.6115 49.8216C50.8086 50.0032 50.9373 50.2215 50.9977 50.4764C51.0543 50.7277 51.0213 51.0032 50.8986 51.3028C50.776 51.5954 50.5386 51.8995 50.1864 52.2152Z" fill="#292929"/>
<path d="M50.95 44.7998C51.1358 44.5206 51.3561 44.3082 51.6108 44.1626C51.8637 44.01 52.1447 43.9386 52.4537 43.9483C52.7656 43.9536 53.0968 44.0531 53.4473 44.2468L55.5573 45.4127L55.2481 45.8772L53.1865 44.738C52.8037 44.5265 52.4545 44.4588 52.1388 44.5349C51.8215 44.6042 51.5539 44.8024 51.3362 45.1295C51.1736 45.3737 51.0843 45.6167 51.0685 45.8585C51.0509 46.0934 51.1079 46.3158 51.2394 46.5257C51.3692 46.7287 51.5725 46.9067 51.8492 47.0596L53.7586 48.1147L53.4494 48.5792L48.3162 45.7427L48.6254 45.2782L51.1228 46.6582L50.8751 46.6466C50.6848 46.3923 50.5957 46.1044 50.6078 45.783C50.6153 45.459 50.7294 45.1312 50.95 44.7998Z" fill="#292929"/>
<path d="M57.3735 41.033C57.249 41.4102 57.0503 41.7262 56.7774 41.9811C56.501 42.2297 56.1814 42.3986 55.8188 42.4879C55.451 42.5758 55.0686 42.5649 54.6717 42.4552C54.2696 42.3441 53.9446 42.1595 53.6965 41.9014C53.4485 41.6433 53.2871 41.3415 53.2123 40.9959C53.1376 40.6503 53.1632 40.2864 53.2894 39.9043C53.4171 39.5172 53.6166 39.1986 53.8879 38.9487C54.1609 38.6937 54.4778 38.5241 54.8389 38.4398C55.2016 38.3504 55.5839 38.3613 55.986 38.4725C56.3829 38.5822 56.708 38.7668 56.9611 39.0263C57.2108 39.2794 57.3747 39.5819 57.4529 39.9339C57.5261 40.2845 57.4996 40.6508 57.3735 41.033ZM56.8925 40.9001C56.9859 40.6172 57.005 40.349 56.9498 40.0954C56.8896 39.8405 56.7628 39.6186 56.5697 39.4299C56.3731 39.2347 56.1195 39.0942 55.8091 39.0085C55.4936 38.9213 55.1975 38.9098 54.9208 38.9742C54.6457 39.0335 54.4086 39.1548 54.2093 39.338C54.0049 39.5198 53.8568 39.7497 53.7651 40.0276C53.6734 40.3055 53.6577 40.572 53.7179 40.8269C53.7731 41.0804 53.8964 41.3041 54.088 41.4978C54.2795 41.6916 54.533 41.832 54.8485 41.9192C55.159 42.005 55.4551 42.0165 55.7369 41.9535C56.0136 41.8892 56.2541 41.7661 56.4585 41.5843C56.6578 41.4011 56.8025 41.173 56.8925 40.9001Z" fill="#292929"/>
<path d="M58.5704 34.2265C58.5551 34.5811 58.4595 34.8986 58.2834 35.1789C58.1021 35.4591 57.8519 35.679 57.533 35.8387C57.209 35.993 56.8199 36.0612 56.3658 36.0432C55.9116 36.0251 55.5324 35.9265 55.2281 35.7472C54.9184 35.5678 54.6879 35.3314 54.5366 35.0381C54.3853 34.7447 54.3173 34.4181 54.3329 34.0583C54.3497 33.6671 54.4545 33.3213 54.6473 33.0207C54.8351 32.7147 55.0938 32.4794 55.4235 32.3149C55.748 32.1502 56.1188 32.0761 56.536 32.0926C56.9584 32.1094 57.3242 32.2127 57.6334 32.4026C57.9426 32.5925 58.1802 32.8475 58.3463 33.1675C58.5125 33.4824 58.5873 33.8353 58.5704 34.2265ZM59.9761 36.4059L54.2811 36.1798L54.304 35.6479L55.5555 35.6976L56.3848 35.7853L57.2278 35.7404L60 35.8505L59.9761 36.4059ZM58.0697 34.2458C58.0823 33.9537 58.0275 33.6903 57.9054 33.4556C57.778 33.2207 57.5958 33.0306 57.3587 32.8854C57.1164 32.74 56.8342 32.6608 56.512 32.6481C56.1899 32.6353 55.9045 32.6919 55.6558 32.8178C55.407 32.9438 55.2091 33.1188 55.0619 33.3428C54.9147 33.5668 54.8348 33.8248 54.8223 34.1169C54.8097 34.4089 54.867 34.675 54.9941 34.9152C55.1215 35.1501 55.3038 35.3402 55.5408 35.4854C55.7781 35.6254 56.0578 35.7018 56.3799 35.7146C56.702 35.7274 56.99 35.6735 57.2438 35.553C57.4925 35.427 57.6905 35.252 57.8377 35.028C57.9798 34.7986 58.0571 34.5378 58.0697 34.2458Z" fill="#292929"/>
<path d="M17.1726 8.41226L17.4481 8.24372L17.9547 9.0518L17.6792 9.22034L17.1726 8.41226Z" fill="#FF9AC4"/>
</svg>
