<svg width="120" height="119" viewBox="0 0 120 119" fill="none" xmlns="http://www.w3.org/2000/svg">
<path d="M82.3416 55.2605H77.6752C77.6752 50.1277 73.4954 45.9646 68.3411 45.9646C67.5305 45.9646 66.7577 46.0991 66.008 46.2936V43.6432C66.008 37.227 60.7851 32.0231 54.3407 32.0231C47.8971 32.0231 42.6742 37.227 42.6742 43.6432V48.3522C41.2273 50.2874 40.3403 52.6624 40.3403 55.2605H35.6733C35.6733 67.3101 44.8842 77.2153 56.6746 78.3794V78.5091C56.6697 81.0689 54.5829 83.1421 52.0125 83.1421V83.1449H45.0074V87.7918H73.0082V83.1449H66.008C63.4326 83.1449 61.3507 81.0682 61.3409 78.5063C61.3409 78.5049 61.3458 78.4993 61.3458 78.4952H61.3409V78.3794C73.1335 77.2125 82.3416 67.3101 82.3416 55.2605ZM68.3411 50.6129C70.9186 50.6129 73.0082 52.6938 73.0082 55.2605H63.6748C63.6748 52.6938 65.7637 50.6129 68.3411 50.6129ZM47.3405 43.6432C47.3405 39.7938 50.4745 36.6707 54.3407 36.6707C58.2077 36.6707 61.3409 39.7931 61.3409 43.6432V48.3529C59.2129 45.5087 55.8409 43.6404 52.0076 43.6404C50.3443 43.6404 48.7721 43.9981 47.3405 44.6206V43.6432ZM52.0076 48.2881C55.8724 48.2881 59.0078 51.4104 59.0078 55.2605H45.0074C45.0074 51.4111 48.1407 48.2881 52.0076 48.2881ZM59.0078 73.8496C50.3261 73.8496 43.0095 67.9158 40.9311 59.9075H77.0844C75.006 67.9158 67.6894 73.8496 59.0078 73.8496Z" fill="#FF9AC4"/>
<path d="M77.6297 34.3912C71.9967 33.8635 67.856 37.9862 68.3873 43.5958C74.0176 44.1235 78.1575 40.0008 77.6297 34.3912Z" fill="#FF9AC4"/>
<path d="M0.00774605 57.6541C-0.0890979 58.7709 0.733487 59.7449 1.83916 59.84C2.96063 59.9364 3.93871 59.1173 4.03555 58.0005C4.13103 56.8994 3.30845 55.9254 2.18698 55.829C1.08131 55.7339 0.103226 56.553 0.00774605 57.6541Z" fill="#292929"/>
<path d="M12.4079 41.0033L2.87615 35.3428L5.36093 31.1934C5.97807 30.1629 6.71912 29.3775 7.58411 28.8372C8.44909 28.297 9.36554 28.0201 10.3335 28.0067C11.3014 27.9933 12.2664 28.2723 13.2287 28.8437C14.1819 29.4098 14.8871 30.1227 15.3444 30.9825C15.7926 31.8369 15.9837 32.7715 15.9175 33.7861C15.8514 34.8008 15.5098 35.8234 14.8926 36.8539L12.4079 41.0033ZM11.9656 38.351L13.3461 36.0458C13.7737 35.3316 14.0057 34.636 14.0419 33.959C14.0836 33.273 13.9432 32.6443 13.6208 32.0729C13.3038 31.4925 12.8186 31.0083 12.165 30.6201C11.5023 30.2266 10.8438 30.0316 10.1894 30.0351C9.53138 30.0243 8.90921 30.2001 8.3229 30.5627C7.742 30.9163 7.23771 31.4501 6.81005 32.1643L5.42962 34.4695L11.9656 38.351Z" fill="#FF9AC4"/>
<path d="M23.688 25.9405C23.0616 26.537 22.3762 26.9349 21.6316 27.1342C20.8798 27.3259 20.1361 27.3206 19.4005 27.1181C18.665 26.9156 18.0087 26.5139 17.4316 25.9129C16.8472 25.3044 16.4735 24.6335 16.3106 23.9003C16.1403 23.1595 16.1718 22.4232 16.405 21.6914C16.6382 20.9596 17.068 20.2954 17.6944 19.6989C18.3284 19.0951 19.0177 18.6936 19.7623 18.4943C20.5144 18.2877 21.2508 18.2855 21.9714 18.4876C22.6997 18.6825 23.3596 19.088 23.9513 19.7042C24.5284 20.3051 24.9021 20.976 25.0723 21.7168C25.2502 22.4503 25.2224 23.1904 24.9889 23.9371C24.7557 24.6689 24.322 25.3367 23.688 25.9405ZM22.5156 24.7196C22.867 24.3849 23.1071 24.0106 23.236 23.5966C23.3649 23.1826 23.367 22.7583 23.2422 22.3237C23.125 21.8819 22.8801 21.467 22.5076 21.079C22.1277 20.6835 21.7225 20.4213 21.2918 20.2926C20.8614 20.1491 20.4357 20.1321 20.0146 20.2419C19.5935 20.3516 19.2111 20.5702 18.8673 20.8975C18.5159 21.2321 18.2758 21.6065 18.1469 22.0205C18.0256 22.4272 18.0236 22.8515 18.1408 23.2934C18.2506 23.7276 18.4955 24.1425 18.8753 24.538C19.2479 24.926 19.6532 25.1881 20.0912 25.3244C20.5292 25.4607 20.9549 25.4777 21.3683 25.3752C21.7894 25.2655 22.1718 25.0469 22.5156 24.7196Z" fill="#FF9AC4"/>
<path d="M33.3798 18.6579C32.7548 19.0112 32.1381 19.2086 31.5296 19.2499C30.916 19.2822 30.3403 19.1356 29.8024 18.8103C29.2593 18.4759 28.779 17.9425 28.3616 17.2103L25.9744 13.0226L27.6978 12.0483L29.9519 16.0026C30.3276 16.6616 30.7565 17.0728 31.2384 17.236C31.7244 17.3849 32.2431 17.3035 32.7946 16.9917C33.199 16.7631 33.5014 16.4832 33.7016 16.1522C33.911 15.8159 34.0045 15.4363 33.9821 15.0133C33.9689 14.585 33.824 14.1283 33.5475 13.6432L31.4342 9.93606L33.1577 8.96178L37.3372 16.2936L35.6965 17.2212L34.5694 15.244L35.2033 15.6845C35.2265 16.3007 35.0721 16.8721 34.7403 17.3986C34.4032 17.916 33.9497 18.3357 33.3798 18.6579Z" fill="#FF9AC4"/>
<path d="M46.2731 13.3677C45.5794 13.5551 44.9208 13.5694 44.2971 13.4107C43.6735 13.252 43.1205 12.9107 42.6382 12.3866C42.1634 11.8496 41.7973 11.1088 41.54 10.1641C41.2798 9.20918 41.2248 8.38428 41.375 7.68936C41.5354 6.99167 41.8458 6.42251 42.3062 5.98186C42.774 5.5283 43.3394 5.21195 44.0025 5.03282C44.8083 4.81511 45.5643 4.79626 46.2704 4.97629C46.9868 5.15357 47.6078 5.5038 48.1337 6.027C48.6697 6.54744 49.0526 7.22923 49.2823 8.07236C49.512 8.9155 49.5276 9.6965 49.3292 10.4154C49.141 11.1315 48.7842 11.7513 48.2588 12.275C47.7408 12.7857 47.0789 13.1499 46.2731 13.3677ZM41.7149 14.4846L38.6348 3.17847L40.5475 2.66175L41.9256 7.72055L42.3621 9.9256L43.0127 12.0728L43.5357 13.9927L41.7149 14.4846ZM45.6147 11.7951C46.0737 11.6711 46.4541 11.4593 46.7558 11.1597C47.0676 10.8573 47.2781 10.4842 47.3872 10.0403C47.4962 9.5964 47.4802 9.11543 47.339 8.59736C47.1951 8.06913 46.9649 7.64602 46.6483 7.32804C46.3289 6.9999 45.9579 6.78385 45.5354 6.6799C45.123 6.57319 44.6873 6.58184 44.2283 6.70585C43.7692 6.82987 43.3838 7.04306 43.0719 7.34544C42.76 7.64781 42.5495 8.02094 42.4405 8.46483C42.3287 8.89856 42.3447 9.37954 42.4886 9.90776C42.6297 10.4258 42.86 10.8489 43.1794 11.1771C43.4988 11.5052 43.8697 11.7213 44.2923 11.8252C44.7149 11.9292 45.1557 11.9191 45.6147 11.7951Z" fill="#FF9AC4"/>
<path d="M54.4276 11.8234L53.612 0.136823L55.589 0L56.4046 11.6866L54.4276 11.8234Z" fill="#FF9AC4"/>
<path d="M65.455 12.1152C64.5207 12.006 63.7235 11.7273 63.0633 11.2792C62.4148 10.8219 61.9346 10.2465 61.6225 9.55299C61.321 8.86069 61.2189 8.10163 61.3163 7.27579C61.4148 6.43949 61.6854 5.72398 62.128 5.12925C62.5822 4.52529 63.1564 4.07841 63.8503 3.7886C64.5548 3.50002 65.3269 3.4048 66.1667 3.50296C66.9855 3.59866 67.6941 3.86164 68.2926 4.29191C68.891 4.72218 69.3357 5.28285 69.6268 5.97392C69.9178 6.66499 70.0115 7.44958 69.9081 8.32769C69.8982 8.41132 69.8819 8.50479 69.859 8.6081C69.8467 8.71263 69.8298 8.81133 69.8082 8.90419L62.8012 8.08521L62.9546 6.78372L68.9223 7.48124L68.1027 7.79875C68.1699 7.31911 68.1201 6.88408 67.9532 6.49366C67.7864 6.10324 67.5316 5.78203 67.1889 5.53001C66.8566 5.27922 66.4543 5.12622 65.9819 5.07101C65.499 5.01457 65.0615 5.06942 64.6695 5.23555C64.2879 5.4029 63.97 5.66248 63.7157 6.01427C63.4731 6.35684 63.3223 6.77901 63.2632 7.28079L63.2262 7.5944C63.1671 8.09618 63.2302 8.55395 63.4155 8.96773C63.6009 9.38151 63.8912 9.71747 64.2864 9.97563C64.6817 10.2338 65.1522 10.3948 65.6981 10.4586C66.1705 10.5138 66.6042 10.4903 66.9994 10.3881C67.3946 10.2859 67.7576 10.0952 68.0885 9.81594L69.0011 11.1466C68.5715 11.5415 68.0538 11.8255 67.4481 11.9984C66.8542 12.1621 66.1898 12.2011 65.455 12.1152Z" fill="#FF9AC4"/>
<path d="M79.8058 15.6499L85.2483 6.01841L89.4762 8.38763C90.5263 8.97606 91.3334 9.69404 91.8975 10.5415C92.4616 11.3891 92.7625 12.2944 92.8004 13.2577C92.8382 14.2209 92.5824 15.1887 92.033 16.161C91.4888 17.1242 90.7908 17.8442 89.9392 18.3211C89.0928 18.7888 88.1595 19.0025 87.1392 18.9622C86.119 18.9219 85.0839 18.6076 84.0338 18.0191L79.8058 15.6499ZM82.4573 15.1429L84.8061 16.4592C85.5338 16.8669 86.2379 17.0803 86.9184 17.0994C87.6082 17.1236 88.2358 16.968 88.8012 16.6327C89.3759 16.3025 89.8498 15.8072 90.223 15.1468C90.6014 14.4771 90.7805 13.8167 90.7605 13.1653C90.7549 12.51 90.5627 11.895 90.1839 11.3205C89.8144 10.7511 89.2657 10.2625 88.5381 9.8547L86.1892 8.53847L82.4573 15.1429Z" fill="#FF9AC4"/>
<path d="M92.5709 23.9098L98.2252 17.6349L99.7002 18.953L94.0458 25.2278L92.5709 23.9098ZM99.9004 17.2652C99.6251 17.0192 99.4746 16.7291 99.449 16.3951C99.4312 16.0681 99.5318 15.7832 99.7506 15.5403C99.9765 15.2896 100.25 15.1594 100.571 15.1495C100.908 15.1389 101.213 15.2566 101.489 15.5026C101.764 15.7486 101.914 16.0312 101.939 16.3504C101.979 16.6688 101.889 16.9494 101.67 17.1922C101.437 17.4507 101.153 17.5927 100.818 17.6183C100.489 17.636 100.184 17.5183 99.9004 17.2652Z" fill="#FF9AC4"/>
<path d="M100.454 32.5501C100.042 32.003 99.7909 31.4074 99.7019 30.7632C99.6192 30.1275 99.7299 29.4854 100.034 28.8369C100.353 28.1906 100.905 27.5735 101.692 26.9859C102.486 26.392 103.232 26.0317 103.93 25.9051C104.634 25.7869 105.276 25.8593 105.858 26.1222C106.448 26.3788 106.958 26.7933 107.39 27.3657C107.891 28.0307 108.188 28.7231 108.282 29.443C108.381 30.1714 108.284 30.8756 107.991 31.5556C107.704 32.2441 107.209 32.8506 106.508 33.375C105.806 33.8995 105.079 34.206 104.326 34.2948C103.589 34.3856 102.883 34.2817 102.208 33.983C101.54 33.6928 100.955 33.2152 100.454 32.5501ZM95.2658 30.585L104.496 23.6851L105.629 25.1876L104.031 26.3819L102.193 27.6772L100.488 29.1494L96.4555 32.1634L95.2658 30.585ZM101.678 31.3592C101.963 31.738 102.301 32.0116 102.693 32.1798C103.09 32.3565 103.516 32.4131 103.97 32.3498C104.425 32.2865 104.868 32.0937 105.299 31.7714C105.738 31.4428 106.048 31.0733 106.227 30.6627C106.415 30.2458 106.48 29.8227 106.42 29.3933C106.367 28.9723 106.198 28.5724 105.912 28.1936C105.627 27.8148 105.285 27.537 104.888 27.3604C104.49 27.1837 104.064 27.127 103.61 27.1904C103.164 27.2474 102.721 27.4402 102.282 27.7688C101.851 28.091 101.541 28.4606 101.353 28.8775C101.165 29.2943 101.101 29.7175 101.16 30.1469C101.22 30.5763 101.392 30.9804 101.678 31.3592Z" fill="#FF9AC4"/>
<path d="M117.16 50.0919C116.919 48.9968 115.843 48.3103 114.759 48.5467C113.659 48.7865 112.97 49.8581 113.211 50.9531C113.448 52.0327 114.524 52.7193 115.624 52.4795C116.708 52.243 117.397 51.1714 117.16 50.0919Z" fill="#292929"/>
<path d="M2.94341 72.4029L13.9337 70.8675L14.1308 72.0192L3.14053 73.5546L2.94341 72.4029Z" fill="#292929"/>
<path d="M5.57917 82.8178C5.28291 82.0517 5.18805 81.3092 5.29459 80.5904C5.41498 79.8782 5.71049 79.2533 6.18112 78.7157C6.6618 78.1749 7.29446 77.7785 8.0791 77.5265C8.87379 77.2713 9.63938 77.2187 10.3759 77.3687C11.1124 77.5187 11.7675 77.8383 12.3412 78.3277C12.9187 78.8268 13.3556 79.4595 13.6518 80.2256C13.9063 80.8837 14.0053 81.52 13.9489 82.1344C13.8924 82.7488 13.6615 83.2922 13.2562 83.7646L12.411 83.1582C12.7108 82.7638 12.8804 82.3394 12.9196 81.8852C12.9588 81.4309 12.8891 80.973 12.7106 80.5113C12.4979 79.9613 12.1753 79.5072 11.7429 79.1492C11.3205 78.7879 10.8285 78.5539 10.267 78.4471C9.70556 78.3403 9.11298 78.3871 8.4893 78.5873C7.86561 78.7876 7.37178 79.0897 7.0078 79.4937C6.64382 79.8977 6.41652 80.3626 6.32589 80.8886C6.24532 81.4114 6.31139 81.9478 6.52408 82.4978C6.70259 82.9595 6.96338 83.3561 7.30643 83.6876C7.64949 84.0191 8.06845 84.2545 8.56331 84.3937L8.32206 85.349C7.69129 85.2093 7.13755 84.9178 6.66085 84.4746C6.1942 84.0282 5.83364 83.4759 5.57917 82.8178Z" fill="#292929"/>
<path d="M11.1998 93.7209C10.7026 93.014 10.4206 92.3023 10.354 91.5858C10.2965 90.8639 10.4347 90.1915 10.7684 89.5686C11.1112 88.9403 11.6376 88.4173 12.3474 87.9997C13.0571 87.5821 13.7851 87.3549 14.5312 87.3182C15.2834 87.29 15.9901 87.435 16.6512 87.7529C17.3275 88.0741 17.887 88.5494 18.3297 89.1787C18.7784 89.8166 19.021 90.4723 19.0572 91.1457C19.1087 91.8223 18.9569 92.4662 18.6019 93.0773C18.2561 93.683 17.7237 94.1973 17.0048 94.6203C16.9593 94.647 16.9062 94.6722 16.8455 94.6957C16.8 94.7225 16.75 94.7519 16.6954 94.784L12.5383 88.8747L13.2617 88.449L17.0732 93.867L16.5318 93.6736C17.0505 93.3684 17.4343 92.9903 17.683 92.5392C17.947 92.0914 18.0654 91.6195 18.0382 91.1236C18.011 90.6277 17.8306 90.1427 17.497 89.6686C17.1696 89.2031 16.7617 88.8519 16.2734 88.6151C15.7852 88.3782 15.2635 88.2768 14.7085 88.3109C14.1534 88.3449 13.612 88.5172 13.0842 88.8277L12.9341 88.916C12.3881 89.2373 11.9846 89.6331 11.7237 90.1035C11.4779 90.5772 11.3793 91.0862 11.4277 91.6306C11.4913 92.1782 11.7081 92.7149 12.078 93.2408C12.3691 93.6546 12.7163 93.9927 13.1196 94.2551C13.529 94.5262 13.9839 94.6973 14.4844 94.7685L14.2203 95.6552C13.6259 95.5783 13.0679 95.3703 12.5462 95.0312C12.0307 94.7008 11.5819 94.264 11.1998 93.7209Z" fill="#292929"/>
<path d="M26.7252 109.084C26.0251 108.631 25.4616 108.103 25.0348 107.502C24.6144 106.892 24.3412 106.246 24.2152 105.563C24.0892 104.881 24.1108 104.188 24.2801 103.484C24.4583 102.786 24.7946 102.115 25.289 101.471C25.7835 100.827 26.3591 100.311 27.0158 99.9225C27.6814 99.5397 28.3854 99.2882 29.1279 99.168C29.8793 99.0535 30.6353 99.0797 31.3961 99.2466C32.1632 99.4052 32.8969 99.711 33.597 100.164C34.2706 100.6 34.8207 101.119 35.2475 101.72C35.6808 102.314 35.9375 102.955 36.0176 103.646L34.9401 103.831C34.8416 103.216 34.6229 102.68 34.2841 102.223C33.9517 101.758 33.5196 101.353 32.9878 101.009C32.4295 100.648 31.8404 100.404 31.2206 100.278C30.6072 100.144 29.9948 100.13 29.3834 100.234C28.7785 100.331 28.2039 100.535 27.6597 100.846C27.1308 101.155 26.664 101.572 26.2595 102.099C25.8549 102.626 25.5799 103.174 25.4345 103.743C25.3044 104.309 25.2882 104.875 25.3858 105.438C25.4898 105.994 25.7105 106.518 26.0478 107.012C26.3915 107.497 26.8425 107.921 27.4009 108.282C27.9326 108.626 28.4931 108.864 29.0824 108.995C29.6717 109.126 30.2981 109.131 30.9618 109.01L31.1338 110.003C30.3986 110.166 29.6507 110.164 28.8899 109.997C28.1292 109.83 27.4076 109.525 26.7252 109.084Z" fill="#292929"/>
<path d="M35.5647 113.882L38.9908 106.328L39.9966 106.714L39.0634 108.772L39.123 108.372C39.601 107.88 40.1638 107.584 40.8114 107.484C41.4634 107.374 42.169 107.465 42.9283 107.756L42.478 108.749C42.4385 108.734 42.3991 108.719 42.3596 108.704C42.3245 108.679 42.2873 108.659 42.2478 108.644C41.4294 108.329 40.6775 108.328 39.9922 108.639C39.3112 108.94 38.7684 109.537 38.3638 110.429L36.6148 114.285L35.5647 113.882Z" fill="#292929"/>
<path d="M48.4543 117.914C47.6014 117.761 46.889 117.451 46.3172 116.985C45.7476 116.509 45.3453 115.929 45.1103 115.246C44.8774 114.552 44.8449 113.803 45.0127 112.999C45.1805 112.195 45.5006 111.515 45.973 110.958C46.4557 110.403 47.0353 110.005 47.7118 109.763C48.4008 109.512 49.125 109.455 49.8844 109.591C50.6541 109.729 51.2989 110.026 51.8187 110.483C52.351 110.931 52.7232 111.5 52.9352 112.191C53.1494 112.87 53.1715 113.617 53.0016 114.432C52.9908 114.483 52.9738 114.539 52.9505 114.599C52.9397 114.65 52.9279 114.707 52.915 114.769L45.7843 113.49L45.9553 112.671L52.4931 113.843L51.9884 114.09C52.111 113.502 52.0897 112.958 51.9243 112.458C51.7714 111.95 51.5035 111.528 51.1204 111.192C50.7373 110.856 50.2596 110.636 49.6875 110.534C49.1258 110.433 48.5944 110.471 48.0933 110.649C47.5923 110.826 47.1685 111.125 46.822 111.543C46.4756 111.962 46.2399 112.471 46.1152 113.068L46.0797 113.239C45.9506 113.857 45.9718 114.427 46.1433 114.95C46.3273 115.464 46.6358 115.899 47.0688 116.254C47.5143 116.601 48.0543 116.832 48.6889 116.946C49.1882 117.035 49.6693 117.031 50.1324 116.932C50.6059 116.835 51.0363 116.634 51.4236 116.33L51.8993 117.152C51.4449 117.52 50.9183 117.768 50.3197 117.896C49.7315 118.025 49.1097 118.031 48.4543 117.914Z" fill="#292929"/>
<path d="M63.9973 118.814L63.9094 116.984L63.8474 116.686L63.7004 113.627C63.6666 112.922 63.4399 112.388 63.0203 112.024C62.6113 111.66 62.016 111.492 61.2344 111.52C60.6957 111.54 60.1877 111.648 59.7104 111.844C59.2331 112.04 58.8326 112.292 58.5087 112.599L57.9616 111.781C58.3669 111.408 58.8607 111.117 59.4431 110.906C60.025 110.685 60.6434 110.562 61.2983 110.539C62.3757 110.5 63.2177 110.738 63.8244 111.253C64.4411 111.757 64.7755 112.551 64.8276 113.633L65.0746 118.774L63.9973 118.814ZM61.1334 118.996C60.5102 119.019 59.9614 118.939 59.4871 118.756C59.0228 118.562 58.6606 118.291 58.4005 117.942C58.1399 117.583 57.9982 117.167 57.9754 116.694C57.9547 116.263 58.0364 115.87 58.2204 115.516C58.4145 115.151 58.7388 114.855 59.1935 114.627C59.6582 114.389 60.2866 114.256 61.0788 114.227L63.9465 114.124L63.9866 114.959L61.1506 115.062C60.3479 115.091 59.7949 115.253 59.4917 115.549C59.199 115.844 59.0628 116.201 59.083 116.622C59.1057 117.095 59.3087 117.467 59.6921 117.737C60.0754 118.008 60.5998 118.131 61.2652 118.107C61.899 118.084 62.4361 117.922 62.8766 117.622C63.3272 117.311 63.645 116.878 63.83 116.324L64.1206 117.087C63.9357 117.641 63.5869 118.091 63.0745 118.436C62.5726 118.781 61.9255 118.968 61.1334 118.996Z" fill="#292929"/>
<path d="M79.1649 107.001C79.8082 106.792 80.4139 106.734 80.9819 106.827C81.5562 106.906 82.0696 107.149 82.5221 107.555C82.9846 107.958 83.3612 108.532 83.6518 109.278L85.4009 113.767L84.3304 114.114L82.6214 109.727C82.304 108.913 81.8641 108.365 81.3014 108.083C80.745 107.788 80.1049 107.757 79.3811 107.991C78.8383 108.167 78.4098 108.433 78.0957 108.788C77.7878 109.131 77.6054 109.549 77.5487 110.043C77.4982 110.523 77.5876 111.058 77.817 111.647L79.3998 115.709L78.3293 116.055L76.6203 111.669C76.303 110.855 75.863 110.307 75.3003 110.024C74.7338 109.733 74.0887 109.704 73.365 109.938C72.8322 110.11 72.4088 110.375 72.0946 110.73C71.7766 111.076 71.5893 111.496 71.5325 111.99C71.482 112.47 71.5715 113.005 71.8009 113.593L73.3837 117.656L72.3131 118.002L69.3023 110.275L70.3276 109.943L71.142 112.033L70.8328 111.719C70.8561 111.081 71.073 110.519 71.4834 110.033C71.9 109.534 72.4752 109.165 73.209 108.928C73.983 108.677 74.716 108.656 75.4079 108.863C76.096 109.06 76.6677 109.51 77.1229 110.214L76.6376 110.188C76.6241 109.486 76.8344 108.849 77.2683 108.277C77.7084 107.693 78.3406 107.267 79.1649 107.001Z" fill="#292929"/>
<path d="M100.373 103.303C99.7623 103.855 99.0786 104.295 98.3219 104.625C97.5652 104.941 96.8797 105.093 96.2654 105.081L95.9451 104.16C96.5129 104.156 97.136 104.025 97.8145 103.766C98.4931 103.493 99.1024 103.112 99.6425 102.624C100.159 102.157 100.516 101.722 100.713 101.317C100.911 100.898 100.975 100.52 100.908 100.185C100.848 99.8423 100.687 99.549 100.424 99.3048C100.107 99.0104 99.7581 98.8583 99.377 98.8486C99.0038 98.8318 98.6144 98.9075 98.2088 99.0757C97.7954 99.2368 97.3662 99.4405 96.9212 99.6869C96.4761 99.9333 96.0272 100.176 95.5744 100.415C95.1139 100.647 94.6499 100.826 94.1824 100.951C93.7227 101.069 93.2675 101.091 92.8169 101.016C92.3664 100.928 91.9248 100.682 91.492 100.28C91.0901 99.9069 90.8287 99.4703 90.7078 98.9706C90.5869 98.4566 90.6491 97.9047 90.8943 97.3148C91.1318 96.7177 91.5988 96.1045 92.2954 95.4749C92.7572 95.0576 93.2808 94.7049 93.8661 94.4167C94.4437 94.1213 95.009 93.9292 95.5618 93.8404L95.9522 94.7411C95.3682 94.844 94.8224 95.0255 94.3151 95.2857C93.8155 95.5389 93.3818 95.8317 93.014 96.1641C92.5209 96.6097 92.1795 97.0386 91.99 97.4506C91.8005 97.8627 91.7395 98.2436 91.8071 98.5933C91.8747 98.9287 92.0477 99.2257 92.3259 99.4842C92.6427 99.7786 92.9878 99.9342 93.361 99.951C93.742 99.9608 94.1354 99.8815 94.541 99.7133C94.9544 99.538 95.3837 99.3271 95.8287 99.0807C96.2738 98.8343 96.7226 98.5987 97.1753 98.3737C97.6358 98.1417 98.0959 97.9667 98.5556 97.8487C99.0155 97.7164 99.4668 97.691 99.9095 97.7725C100.36 97.8469 100.798 98.0815 101.223 98.4764C101.617 98.8426 101.875 99.2828 101.995 99.7967C102.109 100.304 102.043 100.859 101.797 101.463C101.552 102.053 101.077 102.666 100.373 103.303Z" fill="#292929"/>
<path d="M101.9 88.3505C102.272 87.7876 102.712 87.3593 103.222 87.0657C103.727 86.7581 104.289 86.614 104.907 86.6335C105.531 86.6442 106.194 86.8448 106.895 87.2354L111.115 89.5864L110.496 90.523L106.373 88.226C105.607 87.7994 104.909 87.6629 104.278 87.8165C103.643 87.9561 103.108 88.3557 102.672 89.0153C102.347 89.5078 102.169 89.9978 102.137 90.4854C102.102 90.959 102.216 91.4074 102.479 91.8307C102.738 92.24 103.145 92.5988 103.698 92.9072L107.517 95.0346L106.899 95.9712L96.6324 90.2517L97.2509 89.3151L102.246 92.0978L101.75 92.0743C101.37 91.5616 101.191 90.9811 101.216 90.333C101.231 89.6797 101.459 89.0188 101.9 88.3505Z" fill="#292929"/>
<path d="M114.747 80.7551C114.498 81.5157 114.101 82.153 113.555 82.667C113.002 83.1682 112.363 83.5088 111.638 83.6889C110.902 83.8661 110.137 83.8442 109.343 83.623C108.539 83.3989 107.889 83.0267 107.393 82.5063C106.897 81.9858 106.574 81.3772 106.425 80.6803C106.275 79.9835 106.326 79.2498 106.579 78.4792C106.834 77.6987 107.233 77.0564 107.776 76.5524C108.322 76.0383 108.956 75.6963 109.678 75.5262C110.403 75.3461 111.168 75.3681 111.972 75.5921C112.766 75.8134 113.416 76.1856 113.922 76.7088C114.422 77.2193 114.749 77.8293 114.906 78.539C115.052 79.2459 114.999 79.9846 114.747 80.7551ZM113.785 80.4871C113.972 79.9167 114.01 79.3759 113.9 78.8647C113.779 78.3506 113.526 77.9033 113.139 77.5227C112.746 77.1292 112.239 76.8459 111.618 76.6729C110.987 76.4971 110.395 76.474 109.842 76.6038C109.291 76.7235 108.817 76.9681 108.419 77.3375C108.01 77.7041 107.714 78.1676 107.53 78.728C107.347 79.2884 107.315 79.8256 107.436 80.3397C107.546 80.8509 107.793 81.3018 108.176 81.6925C108.559 82.0831 109.066 82.3663 109.697 82.5422C110.318 82.7152 110.91 82.7382 111.474 82.6113C112.027 82.4816 112.508 82.2334 112.917 81.8669C113.316 81.4974 113.605 81.0375 113.785 80.4871Z" fill="#292929"/>
<path d="M117.141 67.0306C117.11 67.7457 116.919 68.3859 116.567 68.9511C116.204 69.516 115.704 69.9594 115.066 70.2815C114.418 70.5927 113.64 70.7301 112.732 70.6938C111.823 70.6574 111.065 70.4585 110.456 70.0971C109.837 69.7352 109.376 69.2585 109.073 68.6671C108.771 68.0756 108.635 67.417 108.666 66.6914C108.699 65.9027 108.909 65.2054 109.295 64.5993C109.67 63.9823 110.188 63.5079 110.847 63.1761C111.496 62.844 112.238 62.6946 113.072 62.728C113.917 62.7618 114.648 62.9701 115.267 63.353C115.885 63.7359 116.36 64.25 116.693 64.8953C117.025 65.5302 117.175 66.2419 117.141 67.0306ZM119.952 71.4251L108.562 70.9693L108.608 69.8967L111.111 69.9969L112.77 70.1739L114.456 70.0833L120 70.3052L119.952 71.4251ZM116.139 67.0695C116.165 66.4806 116.055 65.9496 115.811 65.4763C115.556 65.0026 115.192 64.6193 114.717 64.3265C114.233 64.0332 113.668 63.8737 113.024 63.8479C112.38 63.8221 111.809 63.9362 111.312 64.1902C110.814 64.4442 110.418 64.797 110.124 65.2487C109.829 65.7004 109.67 66.2207 109.645 66.8096C109.619 67.3985 109.734 67.9351 109.988 68.4193C110.243 68.8929 110.608 69.2762 111.082 69.5691C111.556 69.8514 112.116 70.0055 112.76 70.0312C113.404 70.057 113.98 69.9484 114.488 69.7054C114.985 69.4514 115.381 69.0986 115.675 68.6468C115.96 68.1842 116.114 67.6584 116.139 67.0695Z" fill="#292929"/>
<path d="M34.3451 14.9791L34.8961 14.6393L35.9095 16.2687L35.3585 16.6085L34.3451 14.9791Z" fill="#FF9AC4"/>
</svg>
