<svg width="20" height="21" viewBox="0 0 20 21" fill="none" xmlns="http://www.w3.org/2000/svg">
<path d="M8.16782 16.681C9.94158 16.681 11.5773 16.1128 12.9156 15.166L17.9501 20.1528C18.1837 20.3843 18.4918 20.5 18.821 20.5C19.5114 20.5 20 19.974 20 19.3006C20 18.985 19.8938 18.6799 19.6601 18.459L14.6575 13.4932C15.709 12.1255 16.3356 10.4316 16.3356 8.59048C16.3356 4.14019 12.6606 0.5 8.16782 0.5C3.68561 0.5 0 4.12967 0 8.59048C0 13.0408 3.67499 16.681 8.16782 16.681ZM8.16782 14.9345C4.66277 14.9345 1.76314 12.0623 1.76314 8.59048C1.76314 5.11862 4.66277 2.24645 8.16782 2.24645C11.6729 2.24645 14.5725 5.11862 14.5725 8.59048C14.5725 12.0623 11.6729 14.9345 8.16782 14.9345Z" fill="#292929" fill-opacity="0.6"/>
</svg>
