<svg width="37" height="37" viewBox="0 0 37 37" fill="none" xmlns="http://www.w3.org/2000/svg">
<path fill-rule="evenodd" clip-rule="evenodd" d="M18.5 35.9918C28.165 35.9918 36 28.1567 36 18.4918C36 8.82678 28.165 0.99176 18.5 0.99176C8.83502 0.99176 1 8.82678 1 18.4918C1 28.1567 8.83502 35.9918 18.5 35.9918Z" stroke="#606060" stroke-opacity="0.3" stroke-width="1.5"/>
<path d="M24.2202 15.2564C24.139 15.1647 24.0081 15.1416 23.9007 15.1982C23.8339 15.2334 23.7083 15.2795 23.5592 15.3251C23.7473 15.0679 23.8985 14.7799 23.9653 14.5211C23.9942 14.4095 23.952 14.2919 23.8601 14.2254C23.7682 14.1594 23.6458 14.1594 23.5539 14.2254C23.4091 14.3293 22.7102 14.6414 22.2683 14.7426C21.2696 13.8428 20.1074 13.7494 18.8992 14.4749C17.9171 15.0646 17.7034 16.2639 17.7451 16.9948C15.4971 16.7723 14.0998 15.551 13.3132 14.5403C13.2582 14.4694 13.1695 14.432 13.0861 14.4375C12.9985 14.4441 12.9194 14.4941 12.8745 14.5716C12.5026 15.2174 12.3995 15.9314 12.5774 16.6365C12.6747 17.0212 12.8446 17.3603 13.0418 17.6351C12.9472 17.5873 12.8558 17.5274 12.7698 17.456C12.6907 17.3889 12.5801 17.3763 12.4866 17.4208C12.3936 17.4664 12.3343 17.5631 12.3343 17.6692C12.3343 18.88 13.0706 19.6879 13.7583 20.11C13.6472 20.0963 13.5312 20.071 13.4142 20.0342C13.3138 20.0029 13.2048 20.0342 13.1353 20.1155C13.0658 20.1963 13.0493 20.3117 13.0926 20.4101C13.4789 21.2889 14.2109 21.8935 15.1166 22.1128C14.3258 22.5904 13.2673 22.8245 12.298 22.7097C12.1724 22.6915 12.0527 22.7734 12.0132 22.8976C11.9736 23.0219 12.0255 23.1582 12.1361 23.2219C13.6066 24.0711 14.936 24.3744 16.0849 24.3744C17.7568 24.3744 19.0472 23.7325 19.8327 23.1955C21.9503 21.7501 23.2701 19.1548 23.0863 16.8327C23.4256 16.5749 23.9333 16.099 24.248 15.5873C24.3132 15.484 24.3014 15.3477 24.2202 15.2564Z" fill="#292929"/>
</svg>
